Coordinates
version=1
nRows=12
nColumns=24
inDegrees=yes

Units are S.I. units (second, meters, Newtons, ...)
Angles are in degrees.

endheader
time	pelvis_tilt	pelvis_list	pelvis_rotation	pelvis_tx	pelvis_ty	pelvis_tz	hip_flexion_r	hip_adduction_r	hip_rotation_r	knee_angle_r	ankle_angle_r	subtalar_angle_r	mtp_angle_r	hip_flexion_l	hip_adduction_l	hip_rotation_l	knee_angle_l	ankle_angle_l	subtalar_angle_l	mtp_angle_l	lumbar_extension	lumbar_bending	lumbar_rotation
      4.55500000	     -9.82090492	      1.31553424	     -6.53819023	     -1.77320947	     -0.02823651	     -0.30267256	     -3.74497776	      2.15650734	     10.31346066	    -18.35710635	      7.82210398	      5.76413698	     23.42382983	     33.59175682	     -2.02179085	     -3.38910416	     -9.37462019	     -0.99659960	      0.19933571	      7.45038404	      6.57180637	     -0.88521396	     14.27887507
      4.56000000	     -9.84597271	      1.49580052	     -6.58889540	     -1.76653883	     -0.02895637	     -0.30327798	     -3.83740714	      1.82702709	      9.98536137	    -18.86730527	      7.63045449	      6.47238148	     23.66096235	     33.56517541	     -1.82579339	     -3.38702131	    -10.00401399	     -1.37560332	     -0.02443791	      7.53561450	      6.78451922	     -1.07593358	     14.35310014
      4.56500000	     -9.89998210	      1.67259037	     -6.57784431	     -1.75989595	     -0.02966334	     -0.30399693	     -3.87667526	      1.49636701	      9.56396944	    -19.40553697	      7.37506855	      7.22598011	     23.98936565	     33.59155878	     -1.59539144	     -3.34745732	    -10.63243828	     -1.80941412	     -0.21120617	      7.67820175	      7.01945784	     -1.26402630	     14.34414300
      4.57000000	     -9.95459736	      1.85956468	     -6.56181677	     -1.75331822	     -0.03027519	     -0.30475079	     -3.88241398	      1.14360096	      9.10626524	    -19.97234894	      7.02969061	      8.04229790	     24.45795269	     33.61825914	     -1.34334892	     -3.26659509	    -11.22174632	     -2.34740224	     -0.45885970	      7.90250207	      7.24288864	     -1.46520214	     14.30391694
      4.57500000	    -10.02738668	      2.12460551	     -6.50245660	     -1.74667940	     -0.03080898	     -0.30552194	     -3.85167604	      0.70788311	      8.60807357	    -20.55332989	      6.62092214	      8.82702041	     24.92998270	     33.66810234	     -0.99225297	     -3.19615306	    -11.78747766	     -2.90016518	     -0.62501349	      8.11356647	      7.50591669	     -1.76186430	     14.25502704
      4.58000000	    -10.09559004	      2.40232861	     -6.40182606	     -1.74011117	     -0.03124007	     -0.30638860	     -3.79518691	      0.24244057	      8.01316247	    -21.16103178	      6.13452290	      9.69414860	     25.51563362	     33.73402158	     -0.59012113	     -3.04923378	    -12.35982688	     -3.50138859	     -0.83556626	      8.35283521	      7.74733481	     -2.07239252	     14.19720302
      4.58500000	    -10.16186444	      2.72958109	     -6.25143295	     -1.73354358	     -0.03154346	     -0.30727448	     -3.73598773	     -0.27205795	      7.42225263	    -21.73309681	      5.39011936	     10.37394775	     26.52939282	     33.78419017	     -0.09512230	     -2.72383833	    -12.88090573	     -4.27409094	     -1.22654031	      8.75330063	      7.98823790	     -2.46020894	     14.08732513
      4.59000000	    -10.24016467	      3.10248819	     -6.09818820	     -1.72700729	     -0.03178422	     -0.30807728	     -3.60635195	     -0.83530522	      6.79501712	    -22.43710891	      4.84253438	     11.28140203	     26.89309257	     33.90141282	      0.42163679	     -2.62304609	    -13.52512563	     -4.70585294	     -1.07211058	      8.83121321	      8.24179219	     -2.90989391	     13.96368651
      4.59500000	    -10.31498502	      3.44559271	     -5.92519351	     -1.72051093	     -0.03190900	     -0.30905128	     -3.43604837	     -1.41503839	      5.95998951	    -23.17410206	      4.12878305	     12.38454282	     27.58226630	     33.99026710	      0.97150689	     -2.18256135	    -14.14022383	     -5.23193815	     -1.28955906	      8.84313899	      8.47782829	     -3.30533462	     13.88609693
      4.60000000	    -10.38340560	      3.84708804	     -5.72085063	     -1.71397399	     -0.03192857	     -0.30999319	     -3.25532594	     -2.04959622	      5.16234535	    -23.91249004	      3.15362405	     13.24893075	     28.59689582	     34.05471724	      1.61266193	     -1.64647856	    -14.73806128	     -5.75855963	     -1.59751616	      8.67785676	      8.71479288	     -3.78809024	     13.69608431
      4.60500000	    -10.44251457	      4.21039069	     -5.48507651	     -1.70744862	     -0.03188889	     -0.31090026	     -3.06306046	     -2.65694002	      4.29896943	    -24.71475322	      2.23886795	     14.32392371	     29.22968086	     34.14519674	      2.21982944	     -1.18383935	    -15.42951175	     -6.09469205	     -1.53576211	      8.54059827	      8.93288644	     -4.24330400	     13.57484244
      4.61000000	    -10.51760028	      4.60846343	     -5.21005671	     -1.70077109	     -0.03177741	     -0.31181948	     -2.84771514	     -3.30731346	      3.42008716	    -25.53662952	      1.17558937	     15.35366273	     29.78914853	     34.22133975	      2.89414625	     -0.69006985	    -16.08410675	     -6.43070582	     -1.55838972	      8.31189349	      9.19336957	     -4.75224716	     13.33642891
